<?xml version="1.0" standalone="no"?><!DOCTYPE svg PUBLIC "-//W3C//DTD SVG 1.1//EN" "http://www.w3.org/Graphics/SVG/1.1/DTD/svg11.dtd"><svg t="1735215403502" class="icon" viewBox="0 0 1024 1024" version="1.1" xmlns="http://www.w3.org/2000/svg" p-id="2260" xmlns:xlink="http://www.w3.org/1999/xlink" width="200" height="200"><path d="M908.228688 284.336991a314.734204 314.734204 0 0 0-290.199687-192.35513H404.691591a314.734204 314.734204 0 0 0-314.959981 314.959982v213.33741a314.734204 314.734204 0 0 0 314.959981 314.959982H618.029001a314.734204 314.734204 0 0 0 314.959982-314.959982V406.949369a313.033345 313.033345 0 0 0-24.760295-122.612378z m-50.49896 335.942262c0 132.170303-107.530423 239.700727-239.700727 239.700727H404.691591c-132.170303 0-239.700727-107.530423-239.700726-239.700727V406.949369c0-132.170303 107.530423-239.700727 239.700726-239.700727H618.029001c132.170303 0 239.700727 107.530423 239.700727 239.700727z" fill="#333333" p-id="2261"></path><path d="M693.378567 331.592277a37.629627 37.629627 0 0 0-53.215819 0L511.364059 460.398492 382.557845 331.592277a37.629627 37.629627 0 0 0-53.21582 53.215819l128.806215 128.806215L329.342025 642.413a37.629627 37.629627 0 0 0 53.21582 53.215819l128.806214-128.798689 128.798689 128.806215a37.629627 37.629627 0 0 0 53.215819-53.215819L564.579878 513.614311l128.798689-128.798689a37.629627 37.629627 0 0 0 0-53.223345z" fill="#0000FF" p-id="2262"></path></svg>